<?xml version="1.0" encoding="UTF-8"?> <svg xmlns="http://www.w3.org/2000/svg" id="Layer_1" data-name="Layer 1" viewBox="0 0 494.93 551.2"> <defs> <style>.cls-1{fill:#ff8562;}</style> </defs> <title>Artboard 14 copy5</title> <g id="nvEW9I.tif"> <path class="cls-1" d="M62.76,440.78c1.29-2.63,2.48-5.32,3.88-7.89,2.57-4.72,5-9.52,7.94-14,4-6.21,10.32-7.4,17.16-6.68a17.61,17.61,0,0,1,10.47,5.24c4.48,4.28,9.21,8.3,13.59,12.68,2.5,2.5,4.51,5.48,6.95,8.5l1.38-2c7.08-10.52,16.4-18,29-20.79a66.92,66.92,0,0,1,21.61-1.2,6.21,6.21,0,0,1,.66.12c1.15.24,2.59,1,3.35.59s.54-2.18,1.09-3.17a4,4,0,0,1,2.1-1.75,10.16,10.16,0,0,1,3.31-.06c2.16.12,3.18,1.34,3.31,3.47.34,5.45.94,10.88,1.05,16.33.17,8,.08,16,0,24-.05,3.24-.52,6.47-.86,10.37-2.38-2.55-3.85-4.81-4.36-7.59-1-5.44-1.9-10.89-2.85-16.33-.11-.64-.26-1.27-.52-2.55-12.78,13.61-28.4,19-46.47,18.65a4.8,4.8,0,0,0,.26,1.19c2.19,4.67,4.49,9.29,6.58,14,.56,1.26.42,2.81.68,4.22.16.84.46,1.64.91,3.18a16.53,16.53,0,0,1-2.31-1.51c-9-8.87-18-17.7-26.84-26.66C107.41,444.66,101.3,438,95,431.57a22.35,22.35,0,0,0-5.46-4.31c-3.65-1.89-5.12-1.42-7.86,1.71-4,4.57-7.68,9.3-10.27,14.92-1.54,3.35-4,6.29-6.22,9.3a7.31,7.31,0,0,1-2.84,2.09c-2.13,1-4.12.36-4.68-1.87a122,122,0,0,1-3.19-15.78c-1-8.91-1.64-17.87-2.15-26.83-.44-7.83-.5-15.68-.73-23.53,0-.72-.09-1.43-.16-2.5-6.75,3.1-13.74,5.15-17.32,12.15s-3.18,13.84.92,20.49c3.44,5.57,7.15,11,10.24,16.76A43.38,43.38,0,0,1,49,444.92c.82,3.55-.5,6.77-2.59,9.81a42.81,42.81,0,0,1-10,10.74,67.78,67.78,0,0,1-18,9.73c-1.27.43-3,1.41-3.71-.46s.85-2.92,2.49-3.54a31.6,31.6,0,0,0,16.06-12.71c2.13-3.4,5.1-6.79,4.19-11.25a24.92,24.92,0,0,0-2.86-7.2c-4.3-7.53-8.63-15-13.28-22.36-5.15-8.09-4.13-16-.1-24,2.26-4.49,4.63-9.12,8.88-11.83,5.72-3.64,11.72-7.35,19.14-5.13,1.34.4,1.72-.09,1.62-1.44-.46-6.26-1-12.53-1.23-18.8-.32-10-1.15-20,.27-30,.61-4.29,1.52-8.53,2.37-12.78.37-1.85.9-4.28,3-4.23A7.93,7.93,0,0,1,60.51,312c3.51,4.36,5.78,9.42,4.18,15.17-3.89,13.93-3.06,28.14-2.93,42.33.06,6.95-.32,13.9-.31,20.84,0,11.51.18,23,.28,34.52,0,4.62,0,9.25.07,13.87a11.08,11.08,0,0,0,.33,1.87Zm73.85,8.5.05.21c4.24-.86,8.59-1.35,12.68-2.68a108.86,108.86,0,0,0,17.64-7c4.59-2.45,8.55-6.14,12.57-9.54,2-1.65,1.06-5.5-1.38-6.12a34.17,34.17,0,0,0-9-1.25,46,46,0,0,0-21.45,6.19c-7,3.84-12.33,9-15.32,16.45-.89,2.23-.42,3.22,1.95,3.57C135.11,449.24,135.86,449.23,136.6,449.28Z"></path> <path class="cls-1" d="M246.76,486.43q11.87,0,23.74,0c21.31,0,42.62-.12,63.94-.12,18.65,0,37.3.11,55.94.11,17.58,0,35.16-.11,52.75-.11,16.21,0,32.42.08,48.64.08,1.38,0,2,.38,1.95,1.75,0,6.82.5,5.5-5.28,5.51q-46.47.09-92.95.07-63.49,0-127,0-46,0-92,0-45.33,0-90.66,0-41.34,0-82.67.07c-2.72,0-2.91-.19-2.89-2.91,0-4.51,0-4.53,4.69-4.52,17.43,0,34.86.12,52.29.12,19.79,0,39.58-.11,59.37-.11,18,0,35.93.11,53.89.11,18.72,0,37.45-.08,56.17-.12,6.7,0,13.4,0,20.09,0Z"></path> <path class="cls-1" d="M293.2,363.8c6.43,0,12.85,0,19.28,0,17.3,0,34.61-.12,51.91-.12,15.14,0,30.28.11,45.42.11,14.28,0,28.55-.11,42.83-.11,13.16,0,26.33.08,39.49.08,1.12,0,1.59.38,1.58,1.75,0,6.82.41,5.5-4.28,5.51q-37.73.09-75.47.07-51.55,0-103.1,0-37.36,0-74.73,0-36.81,0-73.61,0-33.56,0-67.12.07c-2.21,0-2.37-.19-2.34-2.91,0-4.51,0-4.53,3.81-4.52,14.15,0,28.3.12,42.46.12,16.07,0,32.14-.11,48.2-.11,14.58,0,29.17.11,43.75.11,15.2,0,30.4-.08,45.61-.12,5.44,0,10.88,0,16.32,0Z"></path> <path class="cls-1" d="M1.07,408.31c.18-4,.34-6.66.4-9.35.09-3.93.59-4.67,4.43-5.19a32.14,32.14,0,0,1,5.79-.06c2,.1,2.91,1.31,2.84,3.28-.15,4.41-.39,8.81-.43,13.22-.13,14.71-.13,29.43-.33,44.14a45.33,45.33,0,0,1-1.18,7.81c-.1.51-.8.91-1.22,1.37-.43-.55-.9-1.07-1.27-1.65C5.92,455.42,6,447.82,4.5,440.65A191.34,191.34,0,0,1,1.07,408.31Z"></path> <path class="cls-1" d="M6.56,388.7a40.12,40.12,0,0,1-5-1.29,2.51,2.51,0,0,1-1.3-2c.81-3.8,1.72-7.62,5.18-10.09,2.35-1.68,4.85-1.68,6.44.7a30.25,30.25,0,0,1,3.59,7.82c.67,2.17-.43,3.55-2.73,4.07C10.9,388.29,9,388.38,6.56,388.7Z"></path> <path class="cls-1" d="M271.59,391.89c0-1.56-.47-2.07-2.06-2-2.43.16-4.88.09-7.32.06-3.31,0-3.18-.52-3.18,3.08q0,14.07,0,28.12a4.62,4.62,0,0,1-1,.33l-19.86.07c-1.26,0-1.61-.5-1.6-1.79.07-9.2,0-18.4.08-27.6,0-1.65-.36-2.4-2.23-2.26a51,51,0,0,1-7.94,0c-2.13-.18-2.53.59-2.53,2.53q.07,36,0,71.92c0,1.51.71,1.75,1.91,1.74,2.93,0,5.86-.08,8.78,0,1.62.07,2-.54,2-2.05,0-10.11,0-20.21,0-30.32,0-.46.07-.91.13-1.58,6.88,0,13.62,0,20.37,0a13.18,13.18,0,0,1,1.82.25q0,7.9.06,15.8,0,8.41,0,16.83h0c.51.43,1,1.21,1.54,1.23,3.18.11,6.36.09,9.54,0,.49,0,1-.57,1.46-.87q.05-26.13.11-52.26C271.63,406.1,271.55,399,271.59,391.89Z"></path> <path class="cls-1" d="M432.47,391.89c0-1.56-.47-2.07-2.06-2-2.43.16-4.88.09-7.32.06-3.31,0-3.18-.52-3.18,3.08q0,14.07,0,28.12a4.62,4.62,0,0,1-1,.33l-19.86.07c-1.26,0-1.61-.5-1.6-1.79.07-9.2,0-18.4.08-27.6,0-1.65-.36-2.4-2.23-2.26a51,51,0,0,1-7.94,0c-2.13-.18-2.53.59-2.53,2.53q.07,36,0,71.92c0,1.51.71,1.75,1.91,1.74,2.93,0,5.86-.08,8.78,0,1.62.07,2-.54,2-2.05,0-10.11,0-20.21,0-30.32,0-.46.07-.91.13-1.58,6.88,0,13.62,0,20.37,0a13.18,13.18,0,0,1,1.82.25q0,7.9.06,15.8,0,8.41,0,16.83h0c.51.43,1,1.21,1.54,1.23,3.18.11,6.36.09,9.54,0,.49,0,1-.57,1.46-.87q.05-26.13.11-52.26C432.51,406.1,432.43,399,432.47,391.89Z"></path> <path class="cls-1" d="M321.44,416.22c-.94-3.42-1.9-6.82-2.79-10.25q-1.88-7.29-3.65-14.6c-.28-1.17-.88-1.52-2.06-1.48-3.48.1-7,.14-10.45.06a2.1,2.1,0,0,0-2.46,1.83c-2.82,10-5.77,19.92-8.63,29.9-2.3,8-4.48,16.06-6.79,24.07-1.23,4.26-2.67,8.47-3.94,12.72-.72,2.41-1.29,4.87-2,7.65,3.59,0,6.78-.05,10,0,1.52,0,2.2-.5,2.53-2.05,1-4.83,2.23-9.63,3.41-14.43.32-1.31.49-2.65,2.55-2.61,6.2.12,12.4.05,18.6,0,1.26,0,1.92.36,2.22,1.62,1.15,4.92,2.41,9.81,3.54,14.73.44,1.91,1,3,3.42,2.78a78.87,78.87,0,0,1,8.35,0,15.09,15.09,0,0,0,1.74-.22c-1.3-4.85-2.52-9.48-3.78-14.11Q326.33,434,321.44,416.22ZM297.75,437,306,403.21l.46-.1L314.94,437Z"></path> <path class="cls-1" d="M493,462.75c-1.09-4.54-2.1-9.1-3.29-13.61-3.08-11.71-6.25-23.39-9.36-35.09q-2.93-11-5.8-22c-.39-1.5-1.07-2.18-2.76-2.11-3.34.15-6.69.14-10,0a2.12,2.12,0,0,0-2.47,1.86c-1.38,4.81-2.87,9.59-4.25,14.41q-7.32,25.49-14.6,51c-.82,2.85-1.63,5.71-2.53,8.89,3.69,0,7-.06,10.21,0,1.33,0,1.81-.48,2.1-1.7,1.18-5,2.6-10,3.63-15,.41-2,1.27-2.39,3.06-2.36,6.06.09,12.12.07,18.18,0,1.25,0,1.85.33,2.15,1.64,1.22,5.22,2.61,10.4,3.82,15.62a1.94,1.94,0,0,0,2.29,1.79c2.3-.08,4.6,0,6.9,0h3.52C493.47,465,493.23,463.85,493,462.75ZM457,437l8.31-33.41.62-.1,8.39,33.5Z"></path> <path class="cls-1" d="M376.94,400.21c.07-2.08.2-4.16.21-6.24,0-4,0-4-3.87-4-13.51,0-27,0-40.52-.05-1.73,0-2.16.56-2.08,2.16a54.58,54.58,0,0,1,0,6.68c-.11,1.53.44,2,1.87,1.94,4.11-.07,8.21,0,12.32-.06,2.68,0,2.68,0,2.68,2.73q0,30.28,0,60.57a6.9,6.9,0,0,0,.75,2.12c.17.21.33.6.5.6,3.34,0,6.68.08,10,0,.37,0,.74-.53,1.11-.82a8.93,8.93,0,0,0,.17-1.22c0-10.84,0-21.68,0-32.52,0-10.35.08-20.7.12-31.05l.44-.38,15.75-.2Z"></path> <path class="cls-1" d="M378.53,266.28c-6.41-17.49-19-27.73-37.77-30a5.72,5.72,0,0,0-1.23-.37,76.51,76.51,0,0,0-25.64,3A107.78,107.78,0,0,0,280,255.19a9,9,0,0,1-.42-1.49q-2.92-27-5.82-54a1.91,1.91,0,0,1,1.38-2.39,39.52,39.52,0,0,0,4.72-2.06c9.41-4.93,16.07-12,17.9-22.9a51.19,51.19,0,0,0-3.18-27.5,9.86,9.86,0,0,1-.57-5.63,50.3,50.3,0,0,0,.67-9.38c0-3.4-3.81-5.56-6.35-3.83l-1.65,1.46c-.44,1.71-1.49,3.54-1.19,5.11.67,3.53,2.08,6.92,3,10.4a11.81,11.81,0,0,1,0,3.15l.09.05h-.1l-.14,1.86c-.4.27-1,.44-1.18.81-1.56,3.18-2.67,6.66-4.63,9.56-7.15,10.57-16.94,18.19-28.18,24q-.43-2.86-.86-5.71-2.06-13.48-4.11-27a2.27,2.27,0,0,1,1.24-2.83c5.6-3.2,9.52-7.84,10.74-14.37a45.82,45.82,0,0,0-3.57-28.46,17.84,17.84,0,0,0-11.33-9.83,4.62,4.62,0,0,1-1.17-.81h-7.63c-.17.22-.29.54-.51.64a22.79,22.79,0,0,0-11.9,12.3,40.47,40.47,0,0,0-3,10.06,32.19,32.19,0,0,0,0,11.9c1.36,7.7,4.75,14.2,11.52,18.61a3,3,0,0,1,1,2.36c-.27,4.25-.76,8.48-1.1,12.72-.32,4-.31,4-3.65,2-5.71-3.38-11.08-7.18-15-12.73-4.76-6.79-7.16-14.49-8.73-22.51l-.12-.64-.38-1.58-.11-.61L205,119.4l-.09-1.79a11.2,11.2,0,0,0-.11-2,12.52,12.52,0,0,0-.76-1.9l-2.05.88c-.28.23-.68.4-.82.69q-3.71,8.28-7.37,16.58c-.2,2.35-.55,4.7-.56,7.06a38.2,38.2,0,0,0,6.73,22.14c6.94,10.19,16.66,17,27.43,22.55a3.23,3.23,0,0,1,2.08,3.23c.5,19,1.07,38,1.61,57a17.45,17.45,0,0,1-.19,2l-1.5-1.06c-4.27-3-8.36-6.34-12.87-8.93a106.72,106.72,0,0,0-13.77-6.28,90.83,90.83,0,0,0-9.92-3,5.34,5.34,0,0,0-2,.3,10.31,10.31,0,0,0-1.9-.92c-5.87-1.5-11.66,0-17.37.91a43.07,43.07,0,0,0-11.88,3.83c-16.5,8-29.65,20-40,35.12-1.91,2.8-3.23,6-4.82,9l-.24.41-.61.28a8.86,8.86,0,0,1-.32,1.5c-2.69,6.73-4.33,13.62-3.92,21,.39,7.1,2.79,13.27,7.83,18.31,6.84,6.83,15.37,9.89,24.81,10.68,13.91,1.17,27.22-1.73,40.31-6.07a255.36,255.36,0,0,0,38.75-17c11.69-6.18,23.18-12.75,34.63-19.38,2.14-1.24,3.13-1.19,4.76.59,9,9.87,18.06,19.75,27.35,29.37,5.79,6,11.91,11.71,18.14,17.26a76.18,76.18,0,0,0,18,11.43c6,2.89,12.46,2.89,18.9,2.62,9.26-.4,17.91-3,25.37-8.53,9.39-7,13.64-17,15-28.33A90.41,90.41,0,0,0,378.53,266.28ZM341,306.33c-.59.21-1.16.52-1.75.69.59-.17,1.17-.48,1.75-.69-7.88.4-15.15-1.75-22.27-5-13.61-6.15-26-14.33-38.56-22.31-1.47-.93-2.91-1.9-5-3.24,4.43-1.46,8.09-3,11.9-3.87,10.69-2.42,21.41-4.72,32.18-6.76a47.72,47.72,0,0,1,24.56,1.41c6.51,2.21,11.7,5.87,14.24,12.6,1.55,4.11.67,8.22.2,12.35-.71,1.53-1.32,3.11-2.15,4.58A18,18,0,0,1,343,305.55,11,11,0,0,0,341,306.33Zm-172.06-4.71c-3.73.63-7.55.78-11.33,1.14l1.43.48-1.43-.48c-1.87,0-3.74,0-5.61-.06-4.76-.13-8.93-3.9-8.94-8.68a18.28,18.28,0,0,1,1.61-8.21c6.41-12.31,16.52-21.1,28.77-27,14.18-6.84,29.11-5.67,43.84-1.49,12.49,3.55,23.15,10.48,33,18.7a6.16,6.16,0,0,1-1.44,1.23c-10.2,4.21-20.37,8.49-30.65,12.52a147.91,147.91,0,0,1-27.16,7.7C183.67,298.85,176.32,300.38,168.91,301.62Z"></path> </g> <path class="cls-1" d="M1.86,541.12A23.11,23.11,0,0,0,12,543.64c4.2,0,6.42-1.74,6.42-4.38s-1.92-4-6.78-5.64c-6.72-2.4-11.16-6.12-11.16-12,0-6.9,5.82-12.12,15.3-12.12a23.64,23.64,0,0,1,10.32,2l-2,7.32a18.91,18.91,0,0,0-8.4-1.92c-4,0-5.88,1.86-5.88,3.9,0,2.58,2.22,3.72,7.5,5.7,7.14,2.64,10.44,6.36,10.44,12.06,0,6.78-5.16,12.54-16.26,12.54A26.39,26.39,0,0,1,0,548.62Z"></path> <path class="cls-1" d="M65.1,549.4a26.87,26.87,0,0,1-10.32,1.74c-14,0-21.18-8.76-21.18-20.28,0-13.74,9.84-21.36,22.08-21.36a25.14,25.14,0,0,1,10,1.74l-1.92,7.26A19.28,19.28,0,0,0,56,517c-7.2,0-12.84,4.38-12.84,13.38,0,8,4.8,13.14,12.9,13.14a21.76,21.76,0,0,0,7.68-1.32Z"></path> <path class="cls-1" d="M81.84,510.11v15.6H96.9v-15.6H106v40.44H96.9V533.68H81.84v16.86H72.72V510.11Z"></path> <path class="cls-1" d="M132.66,551.2c-11.94,0-19-9.06-19-20.58,0-12.12,7.8-21.18,19.68-21.18,12.42,0,19.2,9.3,19.2,20.46,0,13.32-8,21.3-19.8,21.3Zm.48-7.26c6.18,0,9.72-5.82,9.72-13.74,0-7.26-3.42-13.5-9.72-13.5s-9.84,6.12-9.84,13.68,3.66,13.56,9.78,13.56Z"></path> <path class="cls-1" d="M177.18,551.2c-11.94,0-19-9.06-19-20.58,0-12.12,7.8-21.18,19.68-21.18,12.42,0,19.2,9.3,19.2,20.46,0,13.32-8,21.3-19.8,21.3Zm.48-7.26c6.18,0,9.72-5.82,9.72-13.74,0-7.26-3.42-13.5-9.72-13.5s-9.84,6.12-9.84,13.68,3.66,13.56,9.78,13.56Z"></path> <path class="cls-1" d="M204.6,510.11h9.12v32.76H229.8v7.68H204.6Z"></path> <path class="cls-1" d="M267.48,551.2c-11.94,0-19-9.06-19-20.58,0-12.12,7.8-21.18,19.68-21.18,12.42,0,19.2,9.3,19.2,20.46,0,13.32-8,21.3-19.8,21.3Zm.48-7.26c6.18,0,9.72-5.82,9.72-13.74,0-7.26-3.42-13.5-9.72-13.5s-9.84,6.12-9.84,13.68,3.66,13.56,9.78,13.56Z"></path> <path class="cls-1" d="M294.9,510.11h24.66v7.5H304v9.24h14.52v7.44H304v16.26H294.9Z"></path> <path class="cls-1" d="M348.54,550.54V534l-12.78-23.88h10.5l4.08,9.72c1.26,2.94,2.16,5.1,3.12,7.74h.12c.9-2.52,1.86-4.86,3.06-7.74l4.08-9.72H371l-13.32,23.58v16.86Z"></path> <path class="cls-1" d="M391.2,551.2c-11.94,0-19-9.06-19-20.58,0-12.12,7.8-21.18,19.68-21.18,12.42,0,19.2,9.3,19.2,20.46,0,13.32-8,21.3-19.8,21.3Zm.48-7.26c6.18,0,9.72-5.82,9.72-13.74,0-7.26-3.42-13.5-9.72-13.5s-9.84,6.12-9.84,13.68,3.66,13.56,9.78,13.56Z"></path> <path class="cls-1" d="M452.34,548.68a45.26,45.26,0,0,1-13.5,2.28c-7.38,0-12.72-1.86-16.44-5.4s-5.7-8.82-5.7-14.76c.06-13.44,9.84-21.12,23.1-21.12A29.22,29.22,0,0,1,451,511.61L449.1,519a21.19,21.19,0,0,0-9.36-1.74c-7.62,0-13.44,4.32-13.44,13.08,0,8.4,5.28,13.26,12.78,13.26a14,14,0,0,0,4.44-.54v-8.52h-6.24v-7.14h15.06Z"></path> <path class="cls-1" d="M470.34,540.16l-2.82,10.38H458l12.36-40.44h11.94l12.6,40.44H485.1L482,540.16Zm10.26-6.84-2.52-8.58c-.66-2.4-1.38-5.46-2-7.8h-.18c-.54,2.4-1.2,5.46-1.8,7.8l-2.46,8.58Z"></path> <path class="cls-1" d="M131.56,41.94a25.91,25.91,0,0,1-10.68,1.92c-11.4,0-20-7.2-20-20.46,0-12.66,8.58-21.24,21.12-21.24,5,0,8.22,1.08,9.6,1.8l-1.26,4.26a19,19,0,0,0-8.16-1.68c-9.48,0-15.78,6.06-15.78,16.68,0,9.9,5.7,16.26,15.54,16.26a20.88,20.88,0,0,0,8.52-1.68Z"></path> <path class="cls-1" d="M140.23,29.7c.12,7.14,4.68,10.08,10,10.08a19.1,19.1,0,0,0,8-1.5l.9,3.78a23.52,23.52,0,0,1-9.66,1.8c-8.94,0-14.28-5.88-14.28-14.64s5.16-15.66,13.62-15.66c9.48,0,12,8.34,12,13.68a19.82,19.82,0,0,1-.18,2.46Zm15.48-3.78c.06-3.36-1.38-8.58-7.32-8.58-5.34,0-7.68,4.92-8.1,8.58Z"></path> <path class="cls-1" d="M167.6,23.28c0-3.42-.06-6.36-.24-9.06H172l.18,5.7h.24c1.32-3.9,4.5-6.36,8-6.36a5.71,5.71,0,0,1,1.5.18v5a7.93,7.93,0,0,0-1.8-.18c-3.72,0-6.36,2.82-7.08,6.78a14.85,14.85,0,0,0-.24,2.46V43.26H167.6Z"></path> <path class="cls-1" d="M195.62,5.88v8.34h7.56v4h-7.56V33.9c0,3.6,1,5.64,4,5.64a11.71,11.71,0,0,0,3.06-.36l.24,4a12.92,12.92,0,0,1-4.68.72,7.31,7.31,0,0,1-5.7-2.22c-1.5-1.56-2-4.14-2-7.56V18.24H186v-4h4.5v-7Z"></path> <path class="cls-1" d="M214.91,6.06a3.27,3.27,0,0,1-6.54,0,3.22,3.22,0,0,1,3.3-3.3A3.13,3.13,0,0,1,214.91,6.06ZM209,43.26v-29h5.28v29Z"></path> <path class="cls-1" d="M223.87,43.26v-25h-4.08v-4h4.08V12.66C223.87,5,228.37,0,236.53,0a14.53,14.53,0,0,1,7.38,1.92l-1.5,4a11.1,11.1,0,0,0-6.12-1.68c-5.58,0-7.2,3.9-7.2,8.52v1.44h16.86v29h-5.22v-25H229.09v25Z"></path> <path class="cls-1" d="M258,29.7c.12,7.14,4.68,10.08,10,10.08a19.1,19.1,0,0,0,8-1.5l.9,3.78a23.52,23.52,0,0,1-9.66,1.8c-8.94,0-14.28-5.88-14.28-14.64s5.16-15.66,13.62-15.66c9.48,0,12,8.34,12,13.68a19.82,19.82,0,0,1-.18,2.46Zm15.48-3.78c.06-3.36-1.38-8.58-7.32-8.58-5.34,0-7.68,4.92-8.1,8.58Z"></path> <path class="cls-1" d="M310.92.66v35.1c0,2.58.06,5.52.24,7.5h-4.74l-.24-5h-.12a10.74,10.74,0,0,1-9.9,5.7c-7,0-12.42-5.94-12.42-14.76-.06-9.66,5.94-15.6,13-15.6,4.44,0,7.44,2.1,8.76,4.44h.12V.66ZM305.64,26a9.34,9.34,0,0,0-.24-2.22,7.77,7.77,0,0,0-7.62-6.12c-5.46,0-8.7,4.8-8.7,11.22,0,5.88,2.88,10.74,8.58,10.74a7.94,7.94,0,0,0,7.74-6.3,9.19,9.19,0,0,0,.24-2.28Z"></path> <path class="cls-1" d="M335.16,43.26c.12-2,.24-4.92.24-7.5V.66h5.22V18.9h.12c1.86-3.24,5.22-5.34,9.9-5.34,7.2,0,12.3,6,12.24,14.82,0,10.38-6.54,15.54-13,15.54-4.2,0-7.56-1.62-9.72-5.46H340l-.24,4.8Zm5.46-11.64a9.87,9.87,0,0,0,.24,1.92,8.15,8.15,0,0,0,7.92,6.18c5.52,0,8.82-4.5,8.82-11.16,0-5.82-3-10.8-8.64-10.8a8.42,8.42,0,0,0-8,6.48,10.41,10.41,0,0,0-.3,2.16Z"></path> <path class="cls-1" d="M371.13,14.22l6.36,17.16c.66,1.92,1.38,4.2,1.86,5.94h.12c.54-1.74,1.14-4,1.86-6.06l5.76-17h5.58l-7.92,20.7c-3.78,10-6.36,15.06-10,18.18a14.32,14.32,0,0,1-6.48,3.42L367,52.08a14,14,0,0,0,4.62-2.58,16,16,0,0,0,4.44-5.88,3.78,3.78,0,0,0,.42-1.26,4.6,4.6,0,0,0-.36-1.38L365.37,14.22Z"></path> </svg> 